<svg id="Layer_1" data-name="Layer 1" xmlns="http://www.w3.org/2000/svg" viewBox="0 0 540 405">
  <title>nugget-4-test</title>
  <path d="M380.75,94.07v147.6h23.4v23.7h-71.7v-23.7h21V132.17h-1.2l-61.2,121.5h-13.5l-63.3-123.3h-1.2v111.3H235v23.7h-71.1v-23.7h23.4V94.07h-25.2V70.37h48.6l74.1,143.4H286l71.1-143.4H406v23.7Z"/>
  <g>
    <path d="M366.75,87.07v147.6h23.4v23.7h-71.7v-23.7h21V125.17h-1.2l-61.2,121.5h-13.5l-63.3-123.3h-1.2v111.3H221v23.7h-71.1v-23.7h23.4V87.07h-25.2V63.37h48.6l74.1,143.4H272l71.1-143.4H392v23.7Z" style="fill: #ffc300"/>
    <path d="M104.8,342.38v-4.76h5.11v-21.7h-5.32v-4.83h11.48v26.53h5v4.76Zm4.69-45.86h6.37v7.21h-6.37Z"/>
    <path d="M128.46,293h5.95l-3.85,15.47h-6Z"/>
    <path d="M181.25,342.38v-4.76h3.22V324.1c0-6.37-2.59-8.75-6.58-8.75-5.39,0-8.05,4.83-8.12,8.89v13.37h5v4.76H160.38v-4.76h3.22V324.1c0-6.44-2.59-8.75-6.51-8.75-5.32,0-8.05,4.69-8.12,8.75v13.51h5.81v4.76h-17v-4.76h5v-21.7H137.7v-4.83H149v5.53a11.07,11.07,0,0,1,10.15-6.16c4.76,0,8.68,2.31,10.08,7.28,1.89-4.27,5.53-7.28,10.78-7.28,5.88,0,10.57,3.57,10.57,11.55v15.61h5.11v4.76Z"/>
    <path d="M212.81,342.38v-4.76h5V299H212.6v-4.83H224v43.4h5v4.76Z"/>
    <path d="M248.16,343.08c-9.52,0-15.47-6.44-15.47-16,0-9.17,5.39-16.66,15.89-16.66s15.75,7.49,15.75,16.38C264.33,336.35,257.89,343.08,248.16,343.08Zm.28-27.72c-6,0-9.38,4.69-9.38,11.34,0,6.37,3.15,11.41,9.31,11.41s9.52-4.83,9.52-11.55S254.25,315.35,248.44,315.35Z"/>
    <path d="M297.3,315.91,286,342.38h-4.55l-11.9-26.46h-3.64v-4.83h14.91v4.83h-4.69L284,334.25h.42l6.86-18.34H287v-4.83h13.93v4.83Z"/>
    <path d="M303.81,342.38v-4.76h5.11v-21.7H303.6v-4.83h11.48v26.53h5v4.76Zm4.69-45.86h6.37v7.21H308.5Z"/>
    <path d="M345.11,342.38v-4.76h5V324.1c0-6.37-2.66-8.75-6.65-8.75a8.53,8.53,0,0,0-8.68,8.61v13.65h5v4.76H323.62v-4.76h5v-21.7h-5.25v-4.83h11.41v5.32a11.61,11.61,0,0,1,10.64-6c6.09,0,10.85,3.57,10.85,11.55v15.61h5v4.76Z"/>
    <path d="M369.82,312.27h-6l3.85-15.47h6Z"/>
    <path d="M393.27,342.38v-4.76h5.11v-21.7h-5.32v-4.83h11.48v26.53h5v4.76ZM398,296.52h6.37v7.21H398Z"/>
    <path d="M426.94,343.08c-6.44,0-10.22-3.71-10.22-9.94V315.77h-4.83v-4.69h4.83v-9.87h6.09v9.87h12v4.69h-12v16.45c0,3.57,1.54,5.6,4.83,5.6,2,0,4.41-.77,5.25-5.74l4.55,1.47C436.53,339.92,432.89,343.08,426.94,343.08Z"/>
  </g>
</svg>
